<svg xmlns="http://www.w3.org/2000/svg" width="249.438" height="243.074" viewBox="0 0 249.438 243.074"><circle cx="123.215" cy="121" r="121" fill="#f0f0f0"/><path fill="#f0f0f0" d="M123.171 128.636c23.717-32.694 66.432-42.159 95.408-21.141 28.977 21.02 33.24 64.563 9.523 97.258-14.571 20.088-36.315 31.404-57.639 32.272l-90.39.048c-21.673-.515-43.917-11.875-58.74-32.31-23.716-32.693-19.452-76.238 9.524-97.256s71.69-11.554 95.407 21.141"/><path fill="#6e6e96" d="m80.004 243.074-.073-.002c-24.353-.578-48.074-13.582-63.455-34.784C4.145 191.287-1.577 171.003.365 151.173c1.968-20.103 11.547-37.335 26.97-48.522 15.422-11.188 34.776-14.943 54.496-10.573 16.294 3.61 31.22 12.429 42.885 25.188 26.436-28.853 68.26-35.753 97.385-14.628 31.608 22.929 36.479 70.318 10.857 105.639-15.075 20.782-38.347 33.771-62.251 34.744l-.241.005zM65.937 102.31c-11.521 0-22.413 3.423-31.556 10.055-12.605 9.143-20.444 23.341-22.073 39.978-1.656 16.909 3.274 34.274 13.883 48.898 13.181 18.172 33.347 29.32 53.956 29.833l90.191-.048c20.225-.863 39.996-11.995 52.908-29.796 21.735-29.964 18.062-69.835-8.19-88.878-26.251-19.042-65.292-10.156-87.028 19.808l-3.3-2.395-3.318 2.407c-10.608-14.625-25.586-24.703-42.173-28.378-4.484-.994-8.937-1.484-13.3-1.484"/><ellipse cx="125.969" cy="133.226" fill="#fff" rx="102.616" ry="103.825"/><path fill="#6e6e96" d="M125.969 243.05c-59.892 0-108.617-49.267-108.617-109.824S66.078 23.401 125.969 23.401s108.616 49.268 108.616 109.825S185.861 243.05 125.969 243.05m0-207.649c-53.275 0-96.617 43.884-96.617 97.825 0 53.94 43.342 97.824 96.617 97.824 53.274 0 96.616-43.884 96.616-97.824.001-53.941-43.341-97.825-96.616-97.825"/><path fill="#6e6e96" d="M58.093 174.599a81 81 0 0 0 3.443 5.195l9.872-6.308a70 70 0 0 1-3.461-5.188zm.589-52.787-11.612-1.513a85 85 0 0 0-.646 6.205l11.624 1.514c.126-2.095.33-4.167.634-6.206m.579 24.152-11.431 2.553a83 83 0 0 0 1.481 6.057l11.444-2.557a70 70 0 0 1-1.494-6.053m33.536-87.452 4.496 10.813a70 70 0 0 1 5.725-2.468l-4.496-10.806a81 81 0 0 0-5.725 2.461m-26.351 40.21-10.391-5.394a80 80 0 0 0-2.752 5.596l10.403 5.397a70 70 0 0 1 2.74-5.599M73.92 70.97a83 83 0 0 0-4.53 4.285l7.935 8.636a71 71 0 0 1 4.512-4.303zm46.756-20.01.527 11.696a70 70 0 0 1 6.228-.315l-.529-11.701c-2.097.021-4.171.14-6.226.32m66.798 117.57 10.408 5.4a79 79 0 0 0 2.981-5.478l-10.386-5.385a68 68 0 0 1-3.003 5.463m9.761-28.676a71 71 0 0 1-.956 6.164l11.622 1.515q.582-3.044.934-6.164zM145.97 64.751a68 68 0 0 1 5.94 1.878l3.513-11.189a84 84 0 0 0-5.947-1.863zm29.552 1.321-7.117 9.301a70 70 0 0 1 4.901 3.855l7.116-9.308a81 81 0 0 0-4.9-3.848m21.325 55.574 11.461-2.557c-.334-2.065-.771-4.094-1.254-6.108l-11.424 2.55a67 67 0 0 1 1.217 6.115m-1.324-34.87-9.863 6.303a69 69 0 0 1 3.266 5.306l9.868-6.303a83 83 0 0 0-3.271-5.306" opacity=".67"/><path fill="#6e6e96" d="M125.969 233.576c-59.891 0-108.616-49.268-108.616-109.826h12c0 53.941 43.342 97.826 96.616 97.826s96.616-43.885 96.616-97.826h12c.001 60.558-48.724 109.826-108.616 109.826" opacity=".15"/><path fill="#ff5757" d="M140.094 121.874a5.999 5.999 0 0 1-4.243-10.242l26.374-26.375a6 6 0 0 1 8.486 8.485l-26.374 26.375a5.99 5.99 0 0 1-4.243 1.757"/><circle cx="125.424" cy="128.655" r="17.234" fill="#fff"/><path fill="#6e6e96" d="M125.424 151.889c-12.811 0-23.233-10.423-23.233-23.234s10.422-23.234 23.233-23.234 23.234 10.423 23.234 23.234-10.423 23.234-23.234 23.234m0-34.468c-6.194 0-11.233 5.04-11.233 11.234s5.039 11.234 11.233 11.234 11.234-5.04 11.234-11.234-5.04-11.234-11.234-11.234"/><path fill="#66c8d0" d="M146.907 187.772h-40.606a6 6 0 0 1 0-12h40.606a6 6 0 0 1 0 12"/></svg>