<svg xmlns="http://www.w3.org/2000/svg" width="32" height="32" class="icon" viewBox="0 0 1024 1024"><path fill="#ffd101" d="M512 128c-211.6 0-384 172.4-384 384s172.4 384 384 384 384-172.4 384-384S723.6 128 512 128z"/><path fill="#fff" d="M512 192c-176.7 0-320 143.3-320 320s143.3 320 320 320 320-143.3 320-320S688.7 192 512 192z" opacity=".3"/><path fill="#414141" d="M384 384l48 96h160l48-96-48 160H432z"/><circle cx="420" cy="520" r="28" fill="#414141"/><circle cx="604" cy="520" r="28" fill="#414141"/><path fill="#414141" d="M512 620c-20 0-36 12-36 28 0 12 8 20 20 24-4 8-12 16-24 20 0 0 16 8 40 8s40-8 40-8c-12-4-20-12-24-20 12-4 20-12 20-24 0-16-16-28-36-28z"/><path fill="#dc3545" d="M700 300c0-33 27-60 60-60s60 27 60 60c0 20-10 38-26 48-12 8-20 16-20 28v8h-28v-12c0-16 8-26 22-36 10-7 16-18 16-30 0-13-11-24-24-24s-24 11-24 24v4h-36z"/><circle cx="760" cy="420" r="22" fill="#dc3545"/></svg>
